<?xml version="1.0" encoding="UTF-8" standalone="no"?>
<!DOCTYPE svg PUBLIC "-//W3C//DTD SVG 1.0//EN" "http://www.w3.org/TR/2001/PR-SVG-20010719/DTD/svg10.dtd">
<svg width="14cm" height="7cm" viewBox="338 98 263 123" xmlns="http://www.w3.org/2000/svg" xmlns:xlink="http://www.w3.org/1999/xlink">
  <g>
    <rect style="fill: #ffffff" x="400" y="100" width="40" height="40"/>
    <rect style="fill: none; fill-opacity:0; stroke-width: 2; stroke: #000000" x="400" y="100" width="40" height="40"/>
    <text font-size="13.5467" style="fill: #000000;text-anchor:middle;font-family:sans-serif;font-style:normal;font-weight:normal" x="420" y="124.133">
      <tspan x="420" y="124.133">1</tspan>
    </text>
  </g>
  <g>
    <rect style="fill: #ffffff" x="440" y="100" width="40" height="40"/>
    <rect style="fill: none; fill-opacity:0; stroke-width: 2; stroke: #000000" x="440" y="100" width="40" height="40"/>
    <text font-size="13.5467" style="fill: #000000;text-anchor:middle;font-family:sans-serif;font-style:normal;font-weight:normal" x="460" y="124.133">
      <tspan x="460" y="124.133">0</tspan>
    </text>
  </g>
  <g>
    <rect style="fill: #ffffff" x="480" y="100" width="40" height="40"/>
    <rect style="fill: none; fill-opacity:0; stroke-width: 2; stroke: #000000" x="480" y="100" width="40" height="40"/>
    <text font-size="13.5467" style="fill: #000000;text-anchor:middle;font-family:sans-serif;font-style:normal;font-weight:normal" x="500" y="124.133">
      <tspan x="500" y="124.133">0</tspan>
    </text>
  </g>
  <g>
    <rect style="fill: #ffffff" x="520" y="100" width="40" height="40"/>
    <rect style="fill: none; fill-opacity:0; stroke-width: 2; stroke: #000000" x="520" y="100" width="40" height="40"/>
    <text font-size="13.5467" style="fill: #000000;text-anchor:middle;font-family:sans-serif;font-style:normal;font-weight:normal" x="540" y="124.133">
      <tspan x="540" y="124.133">42</tspan>
    </text>
  </g>
  <g>
    <rect style="fill: #ffffff" x="560" y="100" width="40" height="40"/>
    <rect style="fill: none; fill-opacity:0; stroke-width: 2; stroke: #000000" x="560" y="100" width="40" height="40"/>
    <text font-size="13.5467" style="fill: #000000;text-anchor:middle;font-family:sans-serif;font-style:normal;font-weight:normal" x="580" y="124.133">
      <tspan x="580" y="124.133">5</tspan>
    </text>
  </g>
  <text font-size="12.8" style="fill: #000000;text-anchor:start;font-family:sans-serif;font-style:normal;font-weight:normal" x="420" y="120">
    <tspan x="420" y="120"></tspan>
  </text>
  <g>
    <rect style="fill: #ffffff" x="400" y="180" width="40" height="40"/>
    <rect style="fill: none; fill-opacity:0; stroke-width: 2; stroke: #ffffff" x="400" y="180" width="40" height="40"/>
    <text font-size="13.5467" style="fill: #007eff;text-anchor:middle;font-family:sans-serif;font-style:normal;font-weight:normal" x="420" y="204.133">
      <tspan x="420" y="204.133">b</tspan>
    </text>
  </g>
  <g>
    <rect style="fill: #ffffff" x="440" y="180" width="40" height="40"/>
    <rect style="fill: none; fill-opacity:0; stroke-width: 2; stroke: #ffffff" x="440" y="180" width="40" height="40"/>
    <text font-size="12.8" style="fill: #000000;text-anchor:middle;font-family:sans-serif;font-style:normal;font-weight:normal" x="460" y="203.9">
      <tspan x="460" y="203.9"></tspan>
    </text>
  </g>
  <g>
    <rect style="fill: #ffffff" x="480" y="180" width="40" height="40"/>
    <rect style="fill: none; fill-opacity:0; stroke-width: 2; stroke: #ffffff" x="480" y="180" width="40" height="40"/>
    <text font-size="12.8" style="fill: #000000;text-anchor:middle;font-family:sans-serif;font-style:normal;font-weight:normal" x="500" y="203.9">
      <tspan x="500" y="203.9"></tspan>
    </text>
  </g>
  <g>
    <rect style="fill: #ffffff" x="520" y="180" width="40" height="40"/>
    <rect style="fill: none; fill-opacity:0; stroke-width: 2; stroke: #ffffff" x="520" y="180" width="40" height="40"/>
    <text font-size="13.5467" style="fill: #007eff;text-anchor:middle;font-family:sans-serif;font-style:normal;font-weight:normal" x="540" y="204.133">
      <tspan x="540" y="204.133">c</tspan>
    </text>
  </g>
  <g>
    <rect style="fill: #ffffff" x="560" y="180" width="40" height="40"/>
    <rect style="fill: none; fill-opacity:0; stroke-width: 2; stroke: #ffffff" x="560" y="180" width="40" height="40"/>
    <text font-size="12.8" style="fill: #000000;text-anchor:middle;font-family:sans-serif;font-style:normal;font-weight:normal" x="580" y="203.9">
      <tspan x="580" y="203.9"></tspan>
    </text>
  </g>
  <text font-size="12.8" style="fill: #000000;text-anchor:start;font-family:sans-serif;font-style:normal;font-weight:normal" x="420" y="200">
    <tspan x="420" y="200"></tspan>
  </text>
  <g>
    <line style="fill: none; fill-opacity:0; stroke-width: 2; stroke: #000000" x1="420" y1="180" x2="420" y2="151.991"/>
    <polygon style="fill: #000000" points="425,151.991 420,141.991 415,151.991 "/>
    <polygon style="fill: none; fill-opacity:0; stroke-width: 2; stroke: #000000" points="425,151.991 420,141.991 415,151.991 "/>
  </g>
  <g>
    <line style="fill: none; fill-opacity:0; stroke-width: 2; stroke: #000000" x1="540" y1="180" x2="540" y2="151"/>
    <polygon style="fill: #000000" points="545,151 540,141 535,151 "/>
    <polygon style="fill: none; fill-opacity:0; stroke-width: 2; stroke: #000000" points="545,151 540,141 535,151 "/>
  </g>
  <g>
    <rect style="fill: #ffffff" x="340" y="100" width="40" height="40"/>
    <rect style="fill: none; fill-opacity:0; stroke-width: 2; stroke: #ffffff" x="340" y="100" width="40" height="40"/>
    <text font-size="13.5467" style="fill: #007eff;text-anchor:middle;font-family:sans-serif;font-style:normal;font-weight:normal" x="360" y="124.133">
      <tspan x="360" y="124.133">a:</tspan>
    </text>
  </g>
</svg>
