<?xml version="1.0" encoding="UTF-8" standalone="no"?>
<!DOCTYPE svg PUBLIC "-//W3C//DTD SVG 1.0//EN" "http://www.w3.org/TR/2001/PR-SVG-20010719/DTD/svg10.dtd">
<svg width="19cm" height="32cm" viewBox="808 -470 364 638" xmlns="http://www.w3.org/2000/svg" xmlns:xlink="http://www.w3.org/1999/xlink">
  <g>
    <rect style="fill: #ffffff" x="920" y="-380" width="120" height="40"/>
    <rect style="fill: none; fill-opacity:0; stroke-width: 2; stroke: #000000" x="920" y="-380" width="120" height="40"/>
    <text font-size="12.8" style="fill: #000000;text-anchor:middle;font-family:sans-serif;font-style:normal;font-weight:normal" x="980" y="-356.1">
      <tspan x="980" y="-356.1">Preprocessor</tspan>
    </text>
  </g>
  <g>
    <rect style="fill: #ffffff" x="920" y="-300" width="120" height="40"/>
    <rect style="fill: none; fill-opacity:0; stroke-width: 2; stroke: #000000" x="920" y="-300" width="120" height="40"/>
    <text font-size="12.8" style="fill: #000000;text-anchor:middle;font-family:sans-serif;font-style:normal;font-weight:normal" x="980" y="-276.1">
      <tspan x="980" y="-276.1">Compiler</tspan>
    </text>
  </g>
  <g>
    <rect style="fill: #ffffff" x="920" y="-160" width="120" height="40"/>
    <rect style="fill: none; fill-opacity:0; stroke-width: 2; stroke: #000000" x="920" y="-160" width="120" height="40"/>
    <text font-size="12.8" style="fill: #000000;text-anchor:middle;font-family:sans-serif;font-style:normal;font-weight:normal" x="980" y="-136.1">
      <tspan x="980" y="-136.1">Linker</tspan>
    </text>
  </g>
  <g>
    <rect style="fill: #ffffff" x="920" y="-20" width="120" height="40"/>
    <rect style="fill: none; fill-opacity:0; stroke-width: 2; stroke: #000000" x="920" y="-20" width="120" height="40"/>
    <text font-size="12.8" style="fill: #000000;text-anchor:middle;font-family:sans-serif;font-style:normal;font-weight:normal" x="980" y="3.9">
      <tspan x="980" y="3.9">Loader</tspan>
    </text>
  </g>
  <g>
    <rect style="fill: #ffffff" x="920" y="60" width="120" height="40"/>
    <rect style="fill: none; fill-opacity:0; stroke-width: 2; stroke: #000000" x="920" y="60" width="120" height="40"/>
    <text font-size="12.8" style="fill: #000000;text-anchor:middle;font-family:sans-serif;font-style:normal;font-weight:normal" x="980" y="83.9">
      <tspan x="980" y="83.9">CPU</tspan>
    </text>
  </g>
  <g>
    <line style="fill: none; fill-opacity:0; stroke-width: 2; stroke: #000000" x1="980" y1="-420.99" x2="980" y2="-392.003"/>
    <polygon style="fill: #000000" points="975,-392.003 980,-382.003 985,-392.003 "/>
    <polygon style="fill: none; fill-opacity:0; stroke-width: 2; stroke: #000000" points="975,-392.003 980,-382.003 985,-392.003 "/>
  </g>
  <g>
    <line style="fill: none; fill-opacity:0; stroke-width: 2; stroke: #000000" x1="980" y1="-339.023" x2="980" y2="-311.977"/>
    <polygon style="fill: #000000" points="975,-311.977 980,-301.977 985,-311.977 "/>
    <polygon style="fill: none; fill-opacity:0; stroke-width: 2; stroke: #000000" points="975,-311.977 980,-301.977 985,-311.977 "/>
  </g>
  <g>
    <line style="fill: none; fill-opacity:0; stroke-width: 2; stroke: #000000" x1="980" y1="-190" x2="980" y2="-172.002"/>
    <polygon style="fill: #000000" points="975,-172.002 980,-162.002 985,-172.002 "/>
    <polygon style="fill: none; fill-opacity:0; stroke-width: 2; stroke: #000000" points="975,-172.002 980,-162.002 985,-172.002 "/>
  </g>
  <g>
    <line style="fill: none; fill-opacity:0; stroke-width: 2; stroke: #000000" x1="980" y1="20.9766" x2="980" y2="48.0234"/>
    <polygon style="fill: #000000" points="975,48.0234 980,58.0234 985,48.0234 "/>
    <polygon style="fill: none; fill-opacity:0; stroke-width: 2; stroke: #000000" points="975,48.0234 980,58.0234 985,48.0234 "/>
  </g>
  <g>
    <line style="fill: none; fill-opacity:0; stroke-width: 2; stroke-dasharray: 4; stroke: #717171" x1="980" y1="100.991" x2="980" y2="129"/>
    <polygon style="fill: #717171" points="975,129 980,139 985,129 "/>
    <polygon style="fill: none; fill-opacity:0; stroke-width: 2; stroke: #717171" points="975,129 980,139 985,129 "/>
  </g>
  <g>
    <line style="fill: none; fill-opacity:0; stroke-width: 2; stroke-dasharray: 4; stroke: #717171" x1="860" y1="80" x2="907.997" y2="80"/>
    <polygon style="fill: #717171" points="907.997,85 917.997,80 907.997,75 "/>
    <polygon style="fill: none; fill-opacity:0; stroke-width: 2; stroke: #717171" points="907.997,85 917.997,80 907.997,75 "/>
  </g>
  <path style="fill: none; fill-opacity:0; stroke-width: 2; stroke: #000000" d="M 1080 -380 C 1120,-380 1080,-250 1120,-250"/>
  <path style="fill: none; fill-opacity:0; stroke-width: 2; stroke: #000000" d="M 1080 -120 C 1120,-120 1080,-250 1120,-250"/>
  <path style="fill: none; fill-opacity:0; stroke-width: 2; stroke: #000000" d="M 1080 -20 C 1120,-20 1080,40 1120,40"/>
  <path style="fill: none; fill-opacity:0; stroke-width: 2; stroke: #000000" d="M 1080 100 C 1120,100 1080,40 1120,40"/>
  <text font-size="12.7998" style="fill: #007eff;text-anchor:start;font-family:sans-serif;font-style:normal;font-weight:normal" x="1140" y="-245.55">
    <tspan x="1140" y="-245.55">Build</tspan>
  </text>
  <text font-size="12.7998" style="fill: #007eff;text-anchor:start;font-family:sans-serif;font-style:normal;font-weight:normal" x="1140" y="44.45">
    <tspan x="1140" y="44.45">Run</tspan>
  </text>
  <g>
    <polygon style="fill: #ffffff" points="960,-468.75 990,-468.75 1000,-458.75 1000,-418.75 960,-418.75 "/>
    <polygon style="fill: none; fill-opacity:0; stroke-width: 2; stroke: #007300" points="960,-468.75 990,-468.75 1000,-458.75 1000,-418.75 960,-418.75 "/>
    <polyline style="fill: none; fill-opacity:0; stroke-width: 2; stroke: #007300" points="990,-468.75 990,-458.75 1000,-458.75 1000,-458.75 "/>
  </g>
  <text font-size="12.7998" style="fill: #007300;text-anchor:middle;font-family:sans-serif;font-style:normal;font-weight:normal" x="980" y="-439.3">
    <tspan x="980" y="-439.3">.cpp</tspan>
  </text>
  <g>
    <polygon style="fill: #ffffff" points="850,-380 874,-380 882,-372 882,-340 850,-340 "/>
    <polygon style="fill: none; fill-opacity:0; stroke-width: 2; stroke: #007300" points="850,-380 874,-380 882,-372 882,-340 850,-340 "/>
    <polyline style="fill: none; fill-opacity:0; stroke-width: 2; stroke: #007300" points="874,-380 874,-372 882,-372 882,-372 "/>
  </g>
  <text font-size="12.7998" style="fill: #007300;text-anchor:middle;font-family:sans-serif;font-style:normal;font-weight:normal" x="866" y="-355.55">
    <tspan x="866" y="-355.55">.h</tspan>
  </text>
  <g>
    <polygon style="fill: #ffffff" points="810,-380 834,-380 842,-372 842,-340 810,-340 "/>
    <polygon style="fill: none; fill-opacity:0; stroke-width: 2; stroke: #007300" points="810,-380 834,-380 842,-372 842,-340 810,-340 "/>
    <polyline style="fill: none; fill-opacity:0; stroke-width: 2; stroke: #007300" points="834,-380 834,-372 842,-372 842,-372 "/>
  </g>
  <text font-size="12.7998" style="fill: #007300;text-anchor:middle;font-family:sans-serif;font-style:normal;font-weight:normal" x="826" y="-355.55">
    <tspan x="826" y="-355.55">.h</tspan>
  </text>
  <g>
    <line style="fill: none; fill-opacity:0; stroke-width: 2; stroke: #000000" x1="882.991" y1="-360" x2="908.215" y2="-360"/>
    <polygon style="fill: #000000" points="908.215,-355 918.215,-360 908.215,-365 "/>
    <polygon style="fill: none; fill-opacity:0; stroke-width: 2; stroke: #000000" points="908.215,-355 918.215,-360 908.215,-365 "/>
  </g>
  <text font-size="12.7998" style="fill: #007eff;text-anchor:start;font-family:sans-serif;font-style:normal;font-weight:normal" x="1008" y="-447.55">
    <tspan x="1008" y="-447.55">Source</tspan>
    <tspan x="1008" y="-431.55">File</tspan>
  </text>
  <text font-size="12.7998" style="fill: #007eff;text-anchor:start;font-family:sans-serif;font-style:normal;font-weight:normal" x="810" y="-385.736">
    <tspan x="810" y="-385.736">Header files</tspan>
  </text>
  <text font-size="12.7998" style="fill: #007eff;text-anchor:start;font-family:sans-serif;font-style:normal;font-weight:normal" x="820" y="84.45">
    <tspan x="820" y="84.45">Input</tspan>
  </text>
  <text font-size="12.7998" style="fill: #007eff;text-anchor:start;font-family:sans-serif;font-style:normal;font-weight:normal" x="960" y="164.45">
    <tspan x="960" y="164.45">Output</tspan>
  </text>
  <g>
    <polygon style="fill: #ffffff" points="850,-160 874,-160 882,-152 882,-120 850,-120 "/>
    <polygon style="fill: none; fill-opacity:0; stroke-width: 2; stroke: #007300" points="850,-160 874,-160 882,-152 882,-120 850,-120 "/>
    <polyline style="fill: none; fill-opacity:0; stroke-width: 2; stroke: #007300" points="874,-160 874,-152 882,-152 882,-152 "/>
  </g>
  <text font-size="12.7998" style="fill: #007300;text-anchor:middle;font-family:sans-serif;font-style:normal;font-weight:normal" x="866" y="-135.55">
    <tspan x="866" y="-135.55">.a</tspan>
  </text>
  <g>
    <polygon style="fill: #ffffff" points="810,-160 834,-160 842,-152 842,-120 810,-120 "/>
    <polygon style="fill: none; fill-opacity:0; stroke-width: 2; stroke: #007300" points="810,-160 834,-160 842,-152 842,-120 810,-120 "/>
    <polyline style="fill: none; fill-opacity:0; stroke-width: 2; stroke: #007300" points="834,-160 834,-152 842,-152 842,-152 "/>
  </g>
  <text font-size="12.7998" style="fill: #007300;text-anchor:middle;font-family:sans-serif;font-style:normal;font-weight:normal" x="826" y="-135.55">
    <tspan x="826" y="-135.55">.lib</tspan>
  </text>
  <g>
    <line style="fill: none; fill-opacity:0; stroke-width: 2; stroke: #000000" x1="882" y1="-140" x2="908.013" y2="-140"/>
    <polygon style="fill: #000000" points="908.013,-135 918.013,-140 908.013,-145 "/>
    <polygon style="fill: none; fill-opacity:0; stroke-width: 2; stroke: #000000" points="908.013,-135 918.013,-140 908.013,-145 "/>
  </g>
  <text font-size="12.7998" style="fill: #007eff;text-anchor:start;font-family:sans-serif;font-style:normal;font-weight:normal" x="810" y="-165.55">
    <tspan x="810" y="-165.55">Static libraries</tspan>
  </text>
  <g>
    <line style="fill: none; fill-opacity:0; stroke-width: 2; stroke: #000000" x1="980" y1="-239.997" x2="980" y2="-259.003"/>
    <polygon style="fill: #000000" points="975,-239.997 980,-229.997 985,-239.997 "/>
    <polygon style="fill: none; fill-opacity:0; stroke-width: 2; stroke: #000000" points="975,-239.997 980,-229.997 985,-239.997 "/>
  </g>
  <text font-size="12.7998" style="fill: #007eff;text-anchor:start;font-family:sans-serif;font-style:normal;font-weight:normal" x="1004" y="-211.736">
    <tspan x="1004" y="-211.736">Object</tspan>
    <tspan x="1004" y="-195.736">File(s)</tspan>
  </text>
  <g>
    <polygon style="fill: #ffffff" points="964,-228 988,-228 996,-220 996,-188 964,-188 "/>
    <polygon style="fill: none; fill-opacity:0; stroke-width: 2; stroke: #007300" points="964,-228 988,-228 996,-220 996,-188 964,-188 "/>
    <polyline style="fill: none; fill-opacity:0; stroke-width: 2; stroke: #007300" points="988,-228 988,-220 996,-220 996,-220 "/>
  </g>
  <text font-size="12.7998" style="fill: #007300;text-anchor:middle;font-family:sans-serif;font-style:normal;font-weight:normal" x="980" y="-203.55">
    <tspan x="980" y="-203.55">.o</tspan>
  </text>
  <g>
    <line style="fill: none; fill-opacity:0; stroke-width: 2; stroke-dasharray: 4; stroke: #000000" x1="936" y1="-188" x2="936" y2="-172.002"/>
    <polygon style="fill: #000000" points="931,-172.002 936,-162.002 941,-172.002 "/>
    <polygon style="fill: none; fill-opacity:0; stroke-width: 2; stroke: #000000" points="931,-172.002 936,-162.002 941,-172.002 "/>
  </g>
  <g>
    <polygon style="fill: #ffffff" points="920,-228 944,-228 952,-220 952,-188 920,-188 "/>
    <polygon style="fill: none; fill-opacity:0; stroke-width: 2; stroke-dasharray: 4; stroke: #007300" points="920,-228 944,-228 952,-220 952,-188 920,-188 "/>
    <polyline style="fill: none; fill-opacity:0; stroke-width: 2; stroke-dasharray: 4; stroke: #007300" points="944,-228 944,-220 952,-220 952,-220 "/>
  </g>
  <text font-size="12.7998" style="fill: #007300;text-anchor:middle;font-family:sans-serif;font-style:normal;font-weight:normal" x="936" y="-203.55">
    <tspan x="936" y="-203.55">.o</tspan>
  </text>
  <g>
    <line style="fill: none; fill-opacity:0; stroke-width: 2; stroke-dasharray: 4; stroke: #000000" x1="909" y1="-208" x2="880" y2="-208"/>
    <polygon style="fill: #000000" points="909,-203 919,-208 909,-213 "/>
    <polygon style="fill: none; fill-opacity:0; stroke-width: 2; stroke: #000000" points="909,-203 919,-208 909,-213 "/>
  </g>
  <g>
    <line style="fill: none; fill-opacity:0; stroke-width: 2; stroke: #000000" x1="980" y1="-46.999" x2="980" y2="-32.001"/>
    <polygon style="fill: #000000" points="975,-32.001 980,-22.001 985,-32.001 "/>
    <polygon style="fill: none; fill-opacity:0; stroke-width: 2; stroke: #000000" points="975,-32.001 980,-22.001 985,-32.001 "/>
  </g>
  <g>
    <line style="fill: none; fill-opacity:0; stroke-width: 2; stroke: #000000" x1="980" y1="-100.004" x2="980" y2="-120"/>
    <polygon style="fill: #000000" points="975,-100.004 980,-90.0044 985,-100.004 "/>
    <polygon style="fill: none; fill-opacity:0; stroke-width: 2; stroke: #000000" points="975,-100.004 980,-90.0044 985,-100.004 "/>
  </g>
  <text font-size="12.7998" style="fill: #007eff;text-anchor:start;font-family:sans-serif;font-style:normal;font-weight:normal" x="1004" y="-71.7363">
    <tspan x="1004" y="-71.7363">Executable</tspan>
    <tspan x="1004" y="-55.7363">File</tspan>
  </text>
  <g>
    <polygon style="fill: #ffffff" points="964,-88 988,-88 996,-80 996,-48 964,-48 "/>
    <polygon style="fill: none; fill-opacity:0; stroke-width: 2; stroke: #007300" points="964,-88 988,-88 996,-80 996,-48 964,-48 "/>
    <polyline style="fill: none; fill-opacity:0; stroke-width: 2; stroke: #007300" points="988,-88 988,-80 996,-80 996,-80 "/>
  </g>
  <text font-size="12.7998" style="fill: #007300;text-anchor:middle;font-family:sans-serif;font-style:normal;font-weight:normal" x="980" y="-63.7363">
    <tspan x="980" y="-63.7363">.exe</tspan>
  </text>
</svg>
