<?xml version="1.0" encoding="UTF-8" standalone="no"?>
<!DOCTYPE svg PUBLIC "-//W3C//DTD SVG 1.0//EN" "http://www.w3.org/TR/2001/PR-SVG-20010719/DTD/svg10.dtd">
<svg width="9cm" height="14cm" viewBox="361 -18 180 270" xmlns="http://www.w3.org/2000/svg" xmlns:xlink="http://www.w3.org/1999/xlink">
  <g>
    <ellipse style="fill: #ffffff" cx="430.094" cy="236.309" rx="15" ry="15"/>
    <ellipse style="fill: none; fill-opacity:0; stroke-width: 2; stroke: #000000" cx="430.094" cy="236.309" rx="15" ry="15"/>
    <ellipse style="fill: #000000" cx="430.094" cy="236.309" rx="10" ry="10"/>
  </g>
  <ellipse style="fill: #000000" cx="430" cy="-6.40075" rx="10" ry="10"/>
  <g>
    <rect style="fill: #ffffff" x="400" y="144" width="60" height="38"/>
    <rect style="fill: none; fill-opacity:0; stroke-width: 2; stroke: #000000" x="400" y="144" width="60" height="38"/>
    <text font-size="12.8" style="fill: #000000;text-anchor:middle;font-family:sans-serif;font-style:normal;font-weight:normal" x="430" y="166.9">
      <tspan x="430" y="166.9">body;</tspan>
    </text>
  </g>
  <g>
    <line style="fill: none; fill-opacity:0; stroke-width: 2; stroke: #000000" x1="430" y1="62" x2="430" y2="73"/>
    <polygon style="fill: #000000" points="425,73 430,83 435,73 "/>
    <polygon style="fill: none; fill-opacity:0; stroke-width: 2; stroke: #000000" points="425,73 430,83 435,73 "/>
  </g>
  <g>
    <polygon style="fill: #ffedaa" points="430,84 470,104 430,124 390,104 "/>
    <polygon style="fill: none; fill-opacity:0; stroke-width: 2; stroke: #000000" points="430,84 470,104 430,124 390,104 "/>
    <text font-size="12.7998" style="fill: #000000;text-anchor:middle;font-family:sans-serif;font-style:normal;font-weight:normal" x="430" y="107.9">
      <tspan x="430" y="107.9">test</tspan>
    </text>
  </g>
  <text font-size="12.7998" style="fill: #005c00;text-anchor:start;font-family:sans-serif;font-style:normal;font-weight:normal" x="444" y="136">
    <tspan x="444" y="136">true</tspan>
  </text>
  <text font-size="12.7998" style="fill: #ff0000;text-anchor:end;font-family:sans-serif;font-style:normal;font-weight:normal" x="392" y="96">
    <tspan x="392" y="96">false</tspan>
  </text>
  <g>
    <polyline style="fill: none; fill-opacity:0; stroke-width: 2; stroke: #000000" points="510,143 510,104 481,104 "/>
    <polygon style="fill: #000000" points="481,99 471,104 481,109 "/>
    <polygon style="fill: none; fill-opacity:0; stroke-width: 2; stroke: #000000" points="481,99 471,104 481,109 "/>
  </g>
  <g>
    <polyline style="fill: none; fill-opacity:0; stroke-width: 2; stroke: #000000" points="390,104 370,104 370,200 430,200 430,209 "/>
    <polygon style="fill: #000000" points="425,209 430,219 435,209 "/>
    <polygon style="fill: none; fill-opacity:0; stroke-width: 2; stroke: #000000" points="425,209 430,219 435,209 "/>
  </g>
  <g>
    <line style="fill: none; fill-opacity:0; stroke-width: 2; stroke: #000000" x1="430" y1="3.21314" x2="430" y2="12.2131"/>
    <polygon style="fill: #000000" points="425,12.2131 430,22.2131 435,12.2131 "/>
    <polygon style="fill: none; fill-opacity:0; stroke-width: 2; stroke: #000000" points="425,12.2131 430,22.2131 435,12.2131 "/>
  </g>
  <g>
    <rect style="fill: #ffffff" x="400" y="24" width="60" height="38"/>
    <rect style="fill: none; fill-opacity:0; stroke-width: 2; stroke: #000000" x="400" y="24" width="60" height="38"/>
    <text font-size="12.8" style="fill: #000000;text-anchor:middle;font-family:sans-serif;font-style:normal;font-weight:normal" x="430" y="46.9">
      <tspan x="430" y="46.9">init;</tspan>
    </text>
  </g>
  <g>
    <line style="fill: none; fill-opacity:0; stroke-width: 2; stroke: #000000" x1="430" y1="124" x2="430" y2="133"/>
    <polygon style="fill: #000000" points="425,133 430,143 435,133 "/>
    <polygon style="fill: none; fill-opacity:0; stroke-width: 2; stroke: #000000" points="425,133 430,143 435,133 "/>
  </g>
  <g>
    <rect style="fill: #ffffff" x="480" y="144" width="60" height="38"/>
    <rect style="fill: none; fill-opacity:0; stroke-width: 2; stroke: #000000" x="480" y="144" width="60" height="38"/>
    <text font-size="12.8" style="fill: #000000;text-anchor:middle;font-family:sans-serif;font-style:normal;font-weight:normal" x="510" y="166.9">
      <tspan x="510" y="166.9">incr;</tspan>
    </text>
  </g>
  <g>
    <line style="fill: none; fill-opacity:0; stroke-width: 2; stroke: #000000" x1="460.977" y1="163" x2="468.023" y2="163"/>
    <polygon style="fill: #000000" points="468.023,168 478.023,163 468.023,158 "/>
    <polygon style="fill: none; fill-opacity:0; stroke-width: 2; stroke: #000000" points="468.023,168 478.023,163 468.023,158 "/>
  </g>
</svg>
