<?xml version="1.0" encoding="UTF-8" standalone="no"?>
<!DOCTYPE svg PUBLIC "-//W3C//DTD SVG 1.0//EN" "http://www.w3.org/TR/2001/PR-SVG-20010719/DTD/svg10.dtd">
<svg width="8cm" height="15cm" viewBox="458 79 143 291" xmlns="http://www.w3.org/2000/svg" xmlns:xlink="http://www.w3.org/1999/xlink">
  <g>
    <ellipse style="fill: #ffffff" cx="530" cy="354" rx="15" ry="15"/>
    <ellipse style="fill: none; fill-opacity:0; stroke-width: 2; stroke: #000000" cx="530" cy="354" rx="15" ry="15"/>
    <ellipse style="fill: #000000" cx="530" cy="354" rx="10" ry="10"/>
  </g>
  <ellipse style="fill: #000000" cx="530" cy="90" rx="10" ry="10"/>
  <g>
    <rect style="fill: #ffffff" x="460" y="120" width="140" height="38"/>
    <rect style="fill: none; fill-opacity:0; stroke-width: 2; stroke: #000000" x="460" y="120" width="140" height="38"/>
    <text font-size="12.8" style="fill: #000000;text-anchor:middle;font-family:sans-serif;font-style:normal;font-weight:normal" x="530" y="142.9">
      <tspan x="530" y="142.9">statement-1;</tspan>
    </text>
  </g>
  <g>
    <rect style="fill: #ffffff" x="460" y="180" width="140" height="38"/>
    <rect style="fill: none; fill-opacity:0; stroke-width: 2; stroke: #000000" x="460" y="180" width="140" height="38"/>
    <text font-size="12.8" style="fill: #000000;text-anchor:middle;font-family:sans-serif;font-style:normal;font-weight:normal" x="530" y="202.9">
      <tspan x="530" y="202.9">statement-2;</tspan>
    </text>
  </g>
  <g>
    <rect style="fill: #ffffff" x="460" y="280" width="140" height="38"/>
    <rect style="fill: none; fill-opacity:0; stroke-width: 2; stroke: #000000" x="460" y="280" width="140" height="38"/>
    <text font-size="12.8" style="fill: #000000;text-anchor:middle;font-family:sans-serif;font-style:normal;font-weight:normal" x="530" y="302.9">
      <tspan x="530" y="302.9">statement-N;</tspan>
    </text>
  </g>
  <g>
    <line style="fill: none; fill-opacity:0; stroke-width: 2; stroke: #000000" x1="530" y1="158.995" x2="530" y2="168.005"/>
    <polygon style="fill: #000000" points="525,168.005 530,178.005 535,168.005 "/>
    <polygon style="fill: none; fill-opacity:0; stroke-width: 2; stroke: #000000" points="525,168.005 530,178.005 535,168.005 "/>
  </g>
  <g>
    <line style="fill: none; fill-opacity:0; stroke-width: 2; stroke-dasharray: 4; stroke: #000000" x1="530" y1="218.971" x2="530" y2="268.029"/>
    <polygon style="fill: #000000" points="525,268.029 530,278.029 535,268.029 "/>
    <polygon style="fill: none; fill-opacity:0; stroke-width: 2; stroke: #000000" points="525,268.029 530,278.029 535,268.029 "/>
  </g>
  <g>
    <line style="fill: none; fill-opacity:0; stroke-width: 2; stroke: #000000" x1="530" y1="100.958" x2="530" y2="108.046"/>
    <polygon style="fill: #000000" points="525,108.046 530,118.046 535,108.046 "/>
    <polygon style="fill: none; fill-opacity:0; stroke-width: 2; stroke: #000000" points="525,108.046 530,118.046 535,108.046 "/>
  </g>
  <g>
    <line style="fill: none; fill-opacity:0; stroke-width: 2; stroke: #000000" x1="530" y1="318.994" x2="530" y2="327.048"/>
    <polygon style="fill: #000000" points="525,327.048 530,337.048 535,327.048 "/>
    <polygon style="fill: none; fill-opacity:0; stroke-width: 2; stroke: #000000" points="525,327.048 530,337.048 535,327.048 "/>
  </g>
</svg>
